<svg xmlns="http://www.w3.org/2000/svg" enable-background="new 0 0 64 64" viewBox="0 0 64 64"><g transform="translate(378 482)"><path fill="#134563" d="M-322-458.5h-2.8v-7.1c0-.8-.6-1.4-1.4-1.4h-39.5c-.8 0-1.4.6-1.4 1.4v7.1h-2.8v-7.1c0-2.3 1.9-4.2 4.2-4.2h39.5c2.3 0 4.2 1.9 4.2 4.2V-458.5M-329.1-430.2h-33.9c-2.3 0-4.2-1.9-4.2-4.2v-24h2.8v24c0 .8.6 1.4 1.4 1.4h33.9c.8 0 1.4-.6 1.4-1.4v-24h2.8v24C-324.8-432.1-326.7-430.2-329.1-430.2"/><path fill="#134563" d="M-340.4-450h-11.3c-0.8,0-1.4-0.6-1.4-1.4s0.6-1.4,1.4-1.4h11.3c0.8,0,1.4,0.6,1.4,1.4     S-339.6-450-340.4-450"/><polygon fill="#134563" points="-370 -461.3 -322 -461.3 -322 -458.5 -370 -458.5"/></g></svg>