<svg xmlns="http://www.w3.org/2000/svg" viewBox="0 0 20 20"><path d="M14.9683,4.2461H5.0317a2.503,2.503,0,0,0-2.5,2.5v6.5078a2.503,2.503,0,0,0,2.5,2.5h9.9366a2.503,2.503,0,0,0,2.5-2.5V6.7461A2.503,2.503,0,0,0,14.9683,4.2461Zm-9.9366,1h9.9366a1.5016,1.5016,0,0,1,1.5,1.5v.6558H3.5317V6.7461A1.5016,1.5016,0,0,1,5.0317,5.2461Zm9.9366,9.5078H5.0317a1.5016,1.5016,0,0,1-1.5-1.5V8.4019H16.4683v4.852A1.5016,1.5016,0,0,1,14.9683,14.7539Zm.1333-2.3384a.5.5,0,0,1-.5.5H13.4028a.5.5,0,0,1,0-1h1.1988A.5.5,0,0,1,15.1016,12.4155Z"/></svg>