<svg xmlns="http://www.w3.org/2000/svg" width="32" height="32" viewBox="0 0 8.467 8.467"><path fill-rule="evenodd" d="M 15.886719 0.98828125 C 15.375103 1.0472419 14.990856 1.485115 15 2 L 15 11.099609 C 12.723877 11.565864 10.998054 13.595288 10.998047 16.003906 C 10.998054 18.412524 12.723877 20.435545 15 20.900391 L 15 30 C 15 31.333644 17 31.333644 17 30 L 17 20.898438 C 17 20.898438 17.001953 20.898438 17.001953 20.898438 C 19.275638 20.430574 21.001946 18.409779 21.001953 16.003906 C 21.001946 13.598034 19.273685 11.570844 17 11.101562 L 17 2 C 17.010772 1.3951622 16.487672 0.91888912 15.886719 0.98828125 z M 25.888672 0.98828125 C 25.377056 1.0472419 24.992809 1.485115 25.001953 2 L 25.001953 21.101562 C 22.72583 21.566415 21.001961 23.589429 21.001953 25.998047 C 21.001962 28.747615 23.248474 31.003906 25.998047 31.003906 C 28.74762 31.003906 30.996085 28.747615 30.996094 25.998047 C 30.996086 23.592174 29.276179 21.571386 27.003906 21.103516 L 27.003906 2 C 27.014678 1.3951622 26.489625 0.91888912 25.888672 0.98828125 z M 6.0019531 1.0039062 C 3.2523802 1.0039062 0.99610229 3.2523846 0.99609375 6.0019531 C 0.99610123 8.4084865 2.7234364 10.429339 4.9980469 10.896484 L 4.9980469 25.998047 C 4.9980469 27.331691 6.9980469 27.331691 6.9980469 25.998047 L 6.9980469 10.898438 C 9.2741701 10.433585 10.99804 8.410571 10.998047 6.0019531 C 10.998039 3.2523846 8.7515262 1.0039062 6.0019531 1.0039062 z M 6.0019531 2.9960938 C 7.6706482 2.9960938 8.9980416 4.3332539 8.9980469 6.0019531 C 8.9980416 7.6706523 7.6706482 8.9980469 6.0019531 8.9980469 C 4.3332581 8.9980469 2.996099 7.6706523 2.9960938 6.0019531 C 2.996099 4.3332539 4.3332581 2.9960938 6.0019531 2.9960938 z M 15.996094 13 C 17.664789 13 19.001948 14.335207 19.001953 16.003906 C 19.001948 17.672605 17.664789 19 15.996094 19 C 14.327399 19 13.000005 17.672605 13 16.003906 C 13.000005 14.335207 14.327399 13 15.996094 13 z M 25.998047 23.001953 C 27.666742 23.001953 29.003901 24.329348 29.003906 25.998047 C 29.003901 27.666746 27.666742 29.003906 25.998047 29.003906 C 24.329352 29.003906 23.001958 27.666746 23.001953 25.998047 C 23.001958 24.329348 24.329352 23.001953 25.998047 23.001953 z M 6 29 A 0.99999995 0.99999995 0 0 0 5 30 A 0.99999995 0.99999995 0 0 0 6 31 A 0.99999995 0.99999995 0 0 0 7 30 A 0.99999995 0.99999995 0 0 0 6 29 z " color="#000" font-family="sans-serif" font-weight="400" overflow="visible" paint-order="stroke fill markers" transform="scale(.26458)" style="line-height:normal;font-variant-ligatures:normal;font-variant-position:normal;font-variant-caps:normal;font-variant-numeric:normal;font-variant-alternates:normal;font-feature-settings:normal;text-indent:0;text-align:start;text-decoration-line:none;text-decoration-style:solid;text-decoration-color:#000;text-transform:none;text-orientation:mixed;shape-padding:0;isolation:auto;mix-blend-mode:normal"/></svg>