<svg xmlns="http://www.w3.org/2000/svg" viewBox="0 0 64 64"><path d="M28.59766,55.65527c-.93848,0-2.125-.31836-4.50049-1.62646a38.27712,38.27712,0,0,1-3.89942-2.47119l-5.51464,1.65429a1.00069,1.00069,0,0,1-.88868-.15918A20.8381,20.8381,0,0,1,7.07666,44.3833,1,1,0,0,1,7.93408,43.002a23.40628,23.40628,0,0,0,8.36475-2.11621,22.969,22.969,0,0,0,2.65088-1.45508,25.4729,25.4729,0,0,1,3.72119-2.16552,23.19173,23.19173,0,0,1,2.458-.91065c.07519-.02.20117-.05371.36377-.102l.16748-.05176c.16113-.05029.30957-.09668.665-.189.33642-.0874.78955-.19824,1.3496-.3125a12.68387,12.68387,0,0,1,3.877-.31592,8.33,8.33,0,0,1,1.71582.30859c.74267.22217,1.40722.49268,2.0498.7544a20.157,20.157,0,0,0,2.11719.769,9.64711,9.64711,0,0,0,1.90039.34326c.63721.06153,1.43067.1377,1.77393.979a1.99262,1.99262,0,0,1-.18653,1.73779A4.2565,4.2565,0,0,1,36.10889,42.46c-.27588-.04248-.52686-.09082-.75782-.144a9.31407,9.31407,0,0,0,1.07813.668,9.4121,9.4121,0,0,0,4.6001,1.08252l3.019-.00049a.99944.99944,0,0,1,.99463.89844,4.14261,4.14261,0,0,1-.40479,2.356c-.95068,1.8418-3.32959,2.77783-6.01172,2.398-2.10009,1.63281-4.21826,3.16748-6.30126,4.56445a6.7188,6.7188,0,0,1-3.49854,1.36622C28.75146,55.65283,28.67529,55.65527,28.59766,55.65527ZM20.38672,49.457a.99945.99945,0,0,1,.5957.19678,36.23688,36.23688,0,0,0,4.07959,2.623c2.59912,1.43164,3.31494,1.39257,3.65772,1.375a4.79144,4.79144,0,0,0,2.49121-1.03028c2.15771-1.44678,4.35449-3.04492,6.52978-4.749a.99512.99512,0,0,1,.80762-.19434c1.92334.37354,3.73779-.16211,4.312-1.27392a1.76454,1.76454,0,0,0,.13184-.33838h-1.939a11.35045,11.35045,0,0,1-9.55176-4.83985,9.41631,9.41631,0,0,0-1.28564.001c-.18066.0127-.33008.02832-.4292.03955a.99983.99983,0,0,1-.23047-1.98633c.11963-.01416.3003-.03271.52149-.04834a11.62175,11.62175,0,0,1,2.09424.04688l.019.00244a7.64019,7.64019,0,0,1,2.13672.59717,8.381,8.381,0,0,0,2.085.605,3.00627,3.00627,0,0,0,1.09472.07275,2.7723,2.7723,0,0,0,1.52442-1.01758,11.40794,11.40794,0,0,1-2.148-.40039,22.11594,22.11594,0,0,1-2.32031-.83935c-.62647-.25537-1.21827-.4961-1.86914-.69092a6.2857,6.2857,0,0,0-1.30811-.23145,10.87716,10.87716,0,0,0-3.31152.28272c-.51758.10547-.93653.20752-1.24756.28809-.30469.0791-.43213.11914-.56983.16211l-.1914.05908c-.19043.05664-.33692.09619-.397.11181a21.8264,21.8264,0,0,0-2.17579.80811,23.95724,23.95724,0,0,0-3.4248,1.99951,24.97955,24.97955,0,0,1-2.92529,1.61084,25.22062,25.22062,0,0,1-7.64746,2.166,18.81907,18.81907,0,0,0,5.10546,6.28369L20.09961,49.499A.99683.99683,0,0,1,20.38672,49.457Z"/><path d="M51,46H39.58984a1,1,0,0,1,0-2H50V13H17V42.12012a1,1,0,0,1-2,0V12a1,1,0,0,1,1-1H51a1,1,0,0,1,1,1V45A1,1,0,0,1,51,46Z"/><path d="M37.5,21h-8a1,1,0,0,1-1-1V12a1,1,0,0,1,1-1h8a1,1,0,0,1,1,1v8A1,1,0,0,1,37.5,21Zm-7-2h6V13h-6Z"/></svg>