<svg xmlns="http://www.w3.org/2000/svg" width="24.001" height="24.001" viewBox="0 0 24.001 24.001"><path fill="none" d="M0 0h24.001v24.001H0z"/><g fill="#757575"><path d="M4.003 11.002h16a3 3 0 00-3-3c-.314 0-.612.062-.897.152a4.986 4.986 0 00-8.205.001 2.966 2.966 0 00-.897-.152 3 3 0 00-3.001 2.999zM11.003 2.002h2v3h-2z"/><path d="M3.589 4.003h2.828v1.999H3.589z" transform="rotate(45.001 5.004 5.002)"/><path d="M18.004 3.588h1.999v2.828h-1.999z" transform="rotate(44.98 19.002 5.002)"/><path d="M20.003 12.002h-16c-.552 0-1 .449-1 1v8a1 1 0 0 0 1 1h16a1 1 0 0 0 1-1v-8a1 1 0 0 0-1-1zM12.002 13.5a1.002 1.002 0 1 1-.001 2.003 1.002 1.002 0 0 1 .001-2.003zm6.001 5.502h-12v-4h3v2h6v-2h3v4z"/></g></svg>